<svg version="1.1" preserveAspectRatio="none" xmlns="http://www.w3.org/2000/svg" width="500" height="500" viewBox="0 0 500 500"><rect width="100%" height="100%" fill="#F2F2F2" fill-opacity="1"/><svg viewBox="232.8135 758.5016 239.4215 278.1226" width="286.66264266190524" height="333" x="106.6687px" y="83.5px" xmlns="http://www.w3.org/2000/svg" xmlns:xlink="http://www.w3.org/1999/xlink" preserveAspectRatio="none"><defs></defs><style>.companyName {fill:#1E1E1E;fill-opacity:1;}.icon1 {fill:#F56E56;fill-opacity:1;}.icon2 {fill:#1E1E1E;fill-opacity:1;}.icon3 {fill:#D0D0D0;fill-opacity:1;}.icon3-str {stroke:#D0D0D0;stroke-opacity:1;}</style><g opacity="1" transform="rotate(0 232.8135 916.6242)">
<svg width="239.4215" height="120" x="232.8135" y="916.6242" version="1.1" preserveAspectRatio="none" viewBox="2.96 -24.88 49.64 24.88">
  <g transform="matrix(1 0 0 1 0 0)" class="companyName"><path id="id-D6z1nYkh2" d="M24.88-21.72L24.88-16.12L18.40-16.12L18.40-21.28Q18.40-22.08 18.16-22.30Q17.92-22.52 17.16-22.52L17.16-22.52L10.68-22.52Q9.92-22.52 9.68-22.30Q9.44-22.08 9.44-21.28L9.44-21.28L9.44-3.60Q9.44-2.80 9.68-2.58Q9.92-2.36 10.68-2.36L10.68-2.36L17.16-2.36Q17.92-2.36 18.16-2.58Q18.40-2.80 18.40-3.60L18.40-3.60L18.40-8.72L24.88-8.72L24.88-3.16Q24.88 0 21.72 0L21.72 0L6.12 0Q2.96 0 2.96-3.16L2.96-3.16L2.96-21.72Q2.96-24.88 6.12-24.88L6.12-24.88L21.72-24.88Q24.88-24.88 24.88-21.72L24.88-21.72Z M46.12-3.60L46.12-3.60L46.12-21.28Q46.12-22.08 45.88-22.30Q45.64-22.52 44.88-22.52L44.88-22.52L36.76-22.52L36.76-2.36L44.88-2.36Q45.64-2.36 45.88-2.58Q46.12-2.80 46.12-3.60ZM30.28 0L30.28-24.88L49.44-24.88Q52.60-24.88 52.60-21.72L52.60-21.72L52.60-3.16Q52.60 0 49.44 0L49.44 0L30.28 0Z"/></g>
</svg>
</g><g opacity="1" transform="rotate(0 304.64 758.5016)">
<svg width="95.7686" height="118.1226" x="304.64" y="758.5016" version="1.1" preserveAspectRatio="none" viewBox="27.034770965576172 10.0197114944458 145.93045043945312 179.9931182861328">
  <g transform="matrix(1 0 0 1 0 0)"><g><path d="M171.9 183l-68-72.5V43.9h4v8.6c0 1.5.8 3 2.2 3.6 2.9 1.3 5.8-.8 5.8-3.6V39.9c0-2.2-1.8-4-4-4h-8V14.2c0-1.9-1.3-3.7-3.1-4.1-2.6-.5-4.8 1.4-4.8 3.9v96.6l-67.9 72.5c-1.5 1.6-1.4 4.1.2 5.6.8.7 1.8 1.1 2.7 1.1 1.1 0 2.1-.2 2.9-1l28.3-29.9h75.6l28.3 29.9c1.5 1.6 4 1.6 5.6.1 1.6-1.7 1.7-4.3.2-5.9zM96 122.3v28.6H69.7L96 122.3zm8 28.5v-28.6l26.4 28.6H104z" data-color="1" class="icon1"></path></g></g>
</svg>
</g></svg></svg>